<svg xmlns="http://www.w3.org/2000/svg" xmlns:xlink="http://www.w3.org/1999/xlink" width="256" zoomAndPan="magnify" viewBox="0 0 192 191.999996" height="256" preserveAspectRatio="xMidYMid meet" version="1.0"><defs><clipPath id="0192cc159b"><path d="M 5.546875 46.394531 L 147.839844 46.394531 L 147.839844 161.148438 L 5.546875 161.148438 Z M 5.546875 46.394531 " clip-rule="nonzero"/></clipPath><clipPath id="aac1e348af"><path d="M 124 32 L 173 32 L 173 72 L 124 72 Z M 124 32 " clip-rule="nonzero"/></clipPath><clipPath id="bd12e32174"><path d="M 119.761719 56.289062 L 180.378906 13.164062 L 195.574219 34.519531 L 134.957031 77.648438 Z M 119.761719 56.289062 " clip-rule="nonzero"/></clipPath><clipPath id="ae97a2f279"><path d="M 119.761719 56.289062 L 180.378906 13.164062 L 195.574219 34.519531 L 134.957031 77.648438 Z M 119.761719 56.289062 " clip-rule="nonzero"/></clipPath><clipPath id="5b7ab2c61c"><path d="M 161 23 L 189 23 L 189 48 L 161 48 Z M 161 23 " clip-rule="nonzero"/></clipPath><clipPath id="2f71d39288"><path d="M 119.761719 56.289062 L 180.378906 13.164062 L 195.574219 34.519531 L 134.957031 77.648438 Z M 119.761719 56.289062 " clip-rule="nonzero"/></clipPath><clipPath id="74000c43bc"><path d="M 119.761719 56.289062 L 180.378906 13.164062 L 195.574219 34.519531 L 134.957031 77.648438 Z M 119.761719 56.289062 " clip-rule="nonzero"/></clipPath></defs><g clip-path="url(#0192cc159b)"><path fill="#050608" d="M 131.578125 77.632812 L 76.695312 116.0625 L 31.976562 84.75 L 31.976562 77.304688 L 76.695312 108.621094 L 147.839844 58.800781 L 147.839844 46.394531 L 76.695312 96.210938 L 31.976562 64.898438 L 21.8125 57.78125 L 21.8125 77.632812 L 15.710938 73.363281 L 5.546875 66.246094 L 5.546875 161.148438 L 15.710938 161.148438 L 15.710938 85.773438 L 21.8125 90.042969 L 21.8125 161.148438 L 31.976562 161.148438 L 31.976562 97.160156 L 76.695312 128.472656 L 121.414062 97.160156 L 121.414062 161.148438 L 131.578125 161.148438 L 131.578125 77.632812 " fill-opacity="1" fill-rule="nonzero"/></g><g clip-path="url(#aac1e348af)"><g clip-path="url(#bd12e32174)"><g clip-path="url(#ae97a2f279)"><path fill="#050608" d="M 124.441406 62.867188 L 166.789062 32.738281 L 172.640625 40.964844 L 130.296875 71.09375 Z M 124.441406 62.867188 " fill-opacity="1" fill-rule="nonzero"/></g></g></g><g clip-path="url(#5b7ab2c61c)"><g clip-path="url(#2f71d39288)"><g clip-path="url(#74000c43bc)"><path fill="#050608" d="M 177.085938 47.6875 L 161.972656 26.28125 L 188.082031 23.886719 Z M 177.085938 47.6875 " fill-opacity="1" fill-rule="evenodd"/></g></g></g></svg>