<svg xmlns="http://www.w3.org/2000/svg" xmlns:xlink="http://www.w3.org/1999/xlink" width="256" zoomAndPan="magnify" viewBox="0 0 192 191.999996" height="256" preserveAspectRatio="xMidYMid meet" version="1.0"><defs><clipPath id="31c2d1f467"><path d="M 4.132812 3.515625 L 186.890625 3.515625 L 186.890625 184.15625 L 4.132812 184.15625 Z M 4.132812 3.515625 " clip-rule="nonzero"/></clipPath><clipPath id="5d03bffde4"><path d="M 95.496094 3.515625 C 45.039062 3.515625 4.132812 43.953125 4.132812 93.835938 C 4.132812 143.71875 45.039062 184.15625 95.496094 184.15625 C 145.957031 184.15625 186.859375 143.71875 186.859375 93.835938 C 186.859375 43.953125 145.957031 3.515625 95.496094 3.515625 Z M 95.496094 3.515625 " clip-rule="nonzero"/></clipPath><clipPath id="8383b4a354"><path d="M 31.265625 59.09375 L 137.210938 59.09375 L 137.210938 144.535156 L 31.265625 144.535156 Z M 31.265625 59.09375 " clip-rule="nonzero"/></clipPath><clipPath id="8e270495ed"><path d="M 119 48 L 156 48 L 156 78 L 119 78 Z M 119 48 " clip-rule="nonzero"/></clipPath><clipPath id="748632c0cc"><path d="M 116.300781 66.460938 L 161.433594 34.351562 L 172.746094 50.253906 L 127.617188 82.363281 Z M 116.300781 66.460938 " clip-rule="nonzero"/></clipPath><clipPath id="4f7ced2dde"><path d="M 116.300781 66.460938 L 161.433594 34.351562 L 172.746094 50.253906 L 127.617188 82.363281 Z M 116.300781 66.460938 " clip-rule="nonzero"/></clipPath><clipPath id="eba0cedfdf"><path d="M 147 42 L 168 42 L 168 61 L 147 61 Z M 147 42 " clip-rule="nonzero"/></clipPath><clipPath id="2ec0215f93"><path d="M 116.300781 66.460938 L 161.433594 34.351562 L 172.746094 50.253906 L 127.617188 82.363281 Z M 116.300781 66.460938 " clip-rule="nonzero"/></clipPath><clipPath id="17ce41308b"><path d="M 116.300781 66.460938 L 161.433594 34.351562 L 172.746094 50.253906 L 127.617188 82.363281 Z M 116.300781 66.460938 " clip-rule="nonzero"/></clipPath></defs><g clip-path="url(#31c2d1f467)"><g clip-path="url(#5d03bffde4)"><path fill="#faf9f7" d="M 4.132812 3.515625 L 186.890625 3.515625 L 186.890625 184.15625 L 4.132812 184.15625 Z M 4.132812 3.515625 " fill-opacity="1" fill-rule="nonzero"/></g></g><g clip-path="url(#8383b4a354)"><path fill="#050608" d="M 125.101562 82.355469 L 84.238281 110.96875 L 50.941406 87.652344 L 50.941406 82.109375 L 84.238281 105.425781 L 137.210938 68.332031 L 137.210938 59.09375 L 84.238281 96.183594 L 50.941406 72.871094 L 43.371094 67.570312 L 43.371094 82.355469 L 38.832031 79.175781 L 31.265625 73.875 L 31.265625 144.535156 L 38.832031 144.535156 L 38.832031 88.414062 L 43.371094 91.59375 L 43.371094 144.535156 L 50.941406 144.535156 L 50.941406 96.894531 L 84.238281 120.207031 L 117.53125 96.894531 L 117.53125 144.535156 L 125.101562 144.535156 L 125.101562 82.355469 " fill-opacity="1" fill-rule="nonzero"/></g><g clip-path="url(#8e270495ed)"><g clip-path="url(#748632c0cc)"><g clip-path="url(#4f7ced2dde)"><path fill="#050608" d="M 119.789062 71.359375 L 151.316406 48.925781 L 155.675781 55.054688 L 124.144531 77.484375 Z M 119.789062 71.359375 " fill-opacity="1" fill-rule="nonzero"/></g></g></g><g clip-path="url(#eba0cedfdf)"><g clip-path="url(#2ec0215f93)"><g clip-path="url(#17ce41308b)"><path fill="#050608" d="M 158.984375 60.058594 L 147.730469 44.117188 L 167.171875 42.335938 Z M 158.984375 60.058594 " fill-opacity="1" fill-rule="evenodd"/></g></g></g></svg>