<?xml version="1.0" encoding="UTF-8"?>
<svg id="Layer_1" data-name="Layer 1" xmlns="http://www.w3.org/2000/svg" xmlns:xlink="http://www.w3.org/1999/xlink" viewBox="0 0 415.73 412.56">
  <defs>
    <style>
      .cls-1 {
        fill: url(#linear-gradient);
        stroke-width: 0px;
      }
    </style>
    <linearGradient id="linear-gradient" x1="355.45" y1="352.48" x2="61.52" y2="58.55" gradientUnits="userSpaceOnUse">
      <stop offset="0" stop-color="#1979ae"/>
      <stop offset="1" stop-color="#26a3c4"/>
    </linearGradient>
  </defs>
  <path class="cls-1" d="M386.62,217.74l22.97-9c4.29-1.68,6.8-6.15,6-10.69l-7.18-40.73c-.76-4.29-4.29-7.55-8.63-7.95l-21.88-2.03c-3.66-.34-6.8-2.74-8.13-6.16-4.71-12.13-10.71-23.62-17.85-34.28-2.01-3-2.2-6.86-.48-10.03l10.73-19.69c2.2-4.04,1.25-9.08-2.28-12.04l-31.88-26.75c-3.34-2.8-8.14-3.02-11.73-.54l-16.54,11.45c-3.03,2.1-6.98,2.27-10.21.5-11.57-6.33-23.92-11.41-36.88-15.06-3.52-.99-6.2-3.83-6.92-7.41l-3.94-19.55c-.91-4.52-4.88-7.76-9.48-7.76h-42.26c-4.36,0-8.18,2.92-9.33,7.12l-4.87,17.79c-.97,3.53-3.84,6.18-7.43,6.93-13.22,2.74-25.91,6.95-37.86,12.47-3.35,1.54-7.27,1.11-10.15-1.19l-14.47-11.55c-3.6-2.87-8.73-2.81-12.25.15l-32.94,27.63c-3.34,2.8-4.39,7.49-2.57,11.46l7.43,16.16c1.51,3.28,1.05,7.12-1.16,9.98-7.9,10.21-14.71,21.3-20.25,33.11-1.56,3.33-4.85,5.5-8.53,5.59l-18.71.46c-4.61.11-8.49,3.46-9.29,7.99L.15,186.94c-.76,4.29,1.45,8.56,5.39,10.43l16.64,7.87c3.25,1.53,5.36,4.74,5.52,8.33.58,12.59,2.48,24.83,5.56,36.6.93,3.55-.19,7.32-2.94,9.75l-15.32,13.51c-3.45,3.05-4.28,8.11-1.98,12.09l21.74,37.66c2.18,3.78,6.62,5.63,10.83,4.52l19.39-5.08c3.47-.91,7.14.19,9.58,2.82,8.02,8.67,16.9,16.54,26.5,23.47,2.95,2.13,4.49,5.71,3.94,9.31l-3.43,22.67c-.69,4.55,1.93,8.96,6.26,10.54l40.41,14.71c4.1,1.49,8.68.06,11.2-3.5l12.65-17.86c2.08-2.94,5.61-4.46,9.18-3.99,7.63,1.01,15.43,1.52,23.33,1.52,3.83,0,7.63-.12,11.41-.36,3.6-.23,7.03,1.53,8.91,4.61l13.04,21.36c2.4,3.93,7.24,5.63,11.57,4.05l39.72-14.46c4.1-1.49,6.69-5.54,6.33-9.88l-1.89-23.04c-.3-3.63,1.48-7.09,4.56-9.02,10.02-6.26,19.38-13.49,27.93-21.57,2.61-2.47,6.35-3.31,9.76-2.17l24.36,8.2c4.37,1.47,9.16-.34,11.47-4.33l20.81-36.04c2.18-3.78,1.57-8.54-1.5-11.64l-16.28-16.45c-2.58-2.61-3.44-6.45-2.27-9.93,3.87-11.5,6.58-23.54,8.01-35.96.41-3.57,2.73-6.62,6.08-7.93ZM353.45,210.1c-2.68,80.52-70.13,143.62-150.66,140.93-80.52-2.68-143.63-70.13-140.94-150.66,2.47-74.01,59.66-133.31,131.43-140.32,1.44-.14,2.88-.26,4.33-.36,8.33-11.33,14.36-19.34,14.36-19.34,0,0,6.11,8.29,14.69,20.24,73.64,9.59,129.32,73.76,126.79,149.51ZM327.82,204.6c10.78,0,16.28-3.33,16.28-3.33v9.04s-4.18,5.83-16.28,5.83-16.28-5.83-16.28-5.83v-9.04s5.5,3.33,16.28,3.33ZM327.82,195.44c12.97,0,18.78-4.69,18.78-4.69l1.15,7.23s-7.81,4.99-19.92,4.99-19.92-4.99-19.92-4.99l1.61-7.23s5.34,4.69,18.31,4.69ZM327.82,217.66c9.52,0,13.81-3.34,13.81-3.34,0,69.5-61.51,129.6-131.63,129.6-50.31,0-92.15-31.72-116.62-71.82-.1-.16,7.71-35.95,8.09-36.8,12.02,48.35,56.52,80.46,108.53,80.46,26.28,0,52.73-11.38,72.57-31.23,19.64-19.65,30.91-44.69,30.91-70.2,0,0,4.84,3.34,14.35,3.34ZM315.71,181.62l7.91-38.98.21.08c1.18.46,2.43.69,3.68.69,1.44,0,2.87-.31,4.21-.91l8.21,39.12s-4.13,3.55-12.11,3.55-12.11-3.55-12.11-3.55ZM324.38,139.84c0-.8,1.49-1.44,3.34-1.44s3.34.65,3.34,1.44-1.49,1.44-3.34,1.44-3.34-.65-3.34-1.44ZM327.91,187.13c8.07,0,13.72-4.2,13.72-4.2l1.19,7.82s-4.9,2.97-14.9,2.97-14.9-2.97-14.9-2.97l.83-7.82s6.01,4.2,14.08,4.2ZM86,193.85c-9.52,0-13.81,3.34-13.81,3.34,0-65.27,54.27-122.26,118.96-128.94-8.04,11.06-17.19,23.84-24.93,35.22-12.79,5.33-24.75,13.3-34.96,23.52-19.64,19.65-31.58,43.25-31.58,68.76,0,0-4.16-1.9-13.68-1.9ZM261.78,109.72c-8.31-12.56-21.35-26.82-29.86-38.81,37.2,8.8,70.84,32.81,89.3,65.67.09.17-8.12,38.53-8.5,39.38-7.32-29.42-25.1-52.49-50.94-66.23ZM286.13,162.66c9.08,18.54,15.19,36.78,15.19,52.31,0,33.11-17.19,62.19-43.14,78.82-52.31,22.77-92.55-35.24-14.19-67.19,35.55-14.49,46.65-49.25,42.14-63.94ZM264.77,126.29c2.79,3.93,5.35,7.74,7.48,11.24,15.67,27.52,6.67,70-54.2,82.13-83.38,16.62-59.64,85.9-8.01,88.83-.76.02-1.52.03-2.27.03-33.46,0-62.81-17.57-79.34-43.98-.79-2.66-3.66-7.01-4.39-9.77-9.67-36.67,22.2-93.38,76.57-94.17,33.16-.48,44.41-16.94,45.99-34.3,1.16-12.74-2.89-25.98-7.31-33.74,6.73,9.03,17.11,21.94,25.48,33.74ZM234.48,126.29c-3.93,12.48-14.17,19.59-29.73,18.95-36.1-1.48-52.2,9.72-71.03,32.49,8.99-18.85,18.3-36.12,27.25-51.45,27.42-46.99,51.34-75.73,51.34-75.73,21.05,31.27,27.58,58.57,22.17,75.73ZM86.05,207.2c-10.78,0-16.28,3.33-16.28,3.33v-9.04s4.18-5.83,16.28-5.83,16.28,5.83,16.28,5.83v9.04s-5.5-3.33-16.28-3.33ZM86.05,216.36c-12.97,0-18.78,4.69-18.78,4.69l-1.15-7.23s7.81-4.99,19.92-4.99,19.92,4.99,19.92,4.99l-1.61,7.23s-5.34-4.69-18.31-4.69ZM98.16,230.18l-7.91,38.98-.21-.08c-1.18-.46-2.43-.69-3.68-.69-1.44,0-2.87.31-4.21.91l-8.21-39.12s4.13-3.55,12.11-3.55,12.11,3.55,12.11,3.55ZM89.49,271.96c0,.8-1.49,1.44-3.34,1.44s-3.34-.65-3.34-1.44,1.49-1.44,3.34-1.44,3.34.65,3.34,1.44ZM85.96,224.66c-8.07,0-13.72,4.2-13.72,4.2l-1.19-7.82s4.9-2.97,14.9-2.97,14.9,2.97,14.9,2.97l-.83,7.82s-6.01-4.2-14.08-4.2Z"/>
</svg>