<svg xmlns="http://www.w3.org/2000/svg" xmlns:xlink="http://www.w3.org/1999/xlink" width="500" zoomAndPan="magnify" viewBox="0 0 375 374.999991" height="500" preserveAspectRatio="xMidYMid meet" version="1.0"><defs><clipPath id="5ce7e3ac7c"><path d="M 14.347656 96.195312 L 300.671875 96.195312 L 300.671875 327.113281 L 14.347656 327.113281 Z M 14.347656 96.195312 " clip-rule="nonzero"/></clipPath><clipPath id="bc34fa394b"><path d="M 241 76 L 340 76 L 340 154 L 241 154 Z M 241 76 " clip-rule="nonzero"/></clipPath><clipPath id="574a3d983f"><path d="M 232.554688 123.910156 L 355.957031 37.320312 L 386.542969 80.90625 L 263.144531 167.5 Z M 232.554688 123.910156 " clip-rule="nonzero"/></clipPath><clipPath id="4804025022"><path d="M 232.554688 123.910156 L 355.957031 37.320312 L 386.542969 80.90625 L 263.144531 167.5 Z M 232.554688 123.910156 " clip-rule="nonzero"/></clipPath><clipPath id="0fdc48f93b"><path d="M 318 59 L 372 59 L 372 108 L 318 108 Z M 318 59 " clip-rule="nonzero"/></clipPath><clipPath id="e1714cb2fa"><path d="M 232.554688 123.910156 L 355.957031 37.320312 L 386.542969 80.90625 L 263.144531 167.5 Z M 232.554688 123.910156 " clip-rule="nonzero"/></clipPath><clipPath id="e24bd71a7d"><path d="M 232.554688 123.910156 L 355.957031 37.320312 L 386.542969 80.90625 L 263.144531 167.5 Z M 232.554688 123.910156 " clip-rule="nonzero"/></clipPath></defs><g clip-path="url(#5ce7e3ac7c)"><path fill="#faf9f7" d="M 267.945312 159.058594 L 157.507812 236.390625 L 67.523438 173.378906 L 67.523438 158.402344 L 157.507812 221.410156 L 300.671875 121.167969 L 300.671875 96.195312 L 157.507812 196.4375 L 67.523438 133.433594 L 47.070312 119.109375 L 47.070312 159.058594 L 34.796875 150.464844 L 14.347656 136.144531 L 14.347656 327.113281 L 34.796875 327.113281 L 34.796875 175.4375 L 47.070312 184.03125 L 47.070312 327.113281 L 67.523438 327.113281 L 67.523438 198.351562 L 157.507812 261.359375 L 247.492188 198.351562 L 247.492188 327.113281 L 267.945312 327.113281 L 267.945312 159.058594 " fill-opacity="1" fill-rule="nonzero"/></g><g clip-path="url(#bc34fa394b)"><g clip-path="url(#574a3d983f)"><g clip-path="url(#4804025022)"><path fill="#faf9f7" d="M 241.925781 137.261719 L 327.882812 76.945312 L 339.601562 93.644531 L 253.644531 153.960938 Z M 241.925781 137.261719 " fill-opacity="1" fill-rule="nonzero"/></g></g></g><g clip-path="url(#0fdc48f93b)"><g clip-path="url(#e1714cb2fa)"><g clip-path="url(#e24bd71a7d)"><path fill="#faf9f7" d="M 348.492188 107.289062 L 318.238281 63.832031 L 371.023438 59.34375 Z M 348.492188 107.289062 " fill-opacity="1" fill-rule="evenodd"/></g></g></g></svg>