<?xml version="1.0" encoding="UTF-8" standalone="no"?>
<!-- Created with Inkscape (http://www.inkscape.org/) -->

<svg
   version="1.1"
   id="svg2"
   width="170.22667"
   height="170.22667"
   viewBox="0 0 170.22667 170.22667"
   sodipodi:docname="NHES Final Logo-logomark.eps"
   xmlns:inkscape="http://www.inkscape.org/namespaces/inkscape"
   xmlns:sodipodi="http://sodipodi.sourceforge.net/DTD/sodipodi-0.dtd"
   xmlns="http://www.w3.org/2000/svg"
   xmlns:svg="http://www.w3.org/2000/svg">
  <defs
     id="defs6" />
  <sodipodi:namedview
     id="namedview4"
     pagecolor="#ffffff"
     bordercolor="#000000"
     borderopacity="0.25"
     inkscape:showpageshadow="2"
     inkscape:pageopacity="0.0"
     inkscape:pagecheckerboard="0"
     inkscape:deskcolor="#d1d1d1" />
  <g
     id="g8"
     inkscape:groupmode="layer"
     inkscape:label="ink_ext_XXXXXX"
     transform="matrix(1.3333333,0,0,-1.3333333,0,170.22667)">
    <g
       id="g10"
       transform="scale(0.1)">
      <path
         d="m 966.391,406.715 c 2.363,15.801 3.613,31.953 3.613,48.41 0,23.184 -5.481,51.211 -14.941,82.371 -37.657,-6.758 -102.286,-21.211 -147.422,-46.719 56.453,-21.316 110.703,-48.847 158.75,-84.062"
         style="fill:#8ed02a;fill-opacity:1;fill-rule:nonzero;stroke:none"
         id="path12" />
      <path
         d="m 334.262,529.645 c -8.028,-28.016 -12.629,-53.301 -12.629,-74.52 0,-35.352 5.734,-69.355 16.203,-101.211 107.441,5.789 337.266,3.945 570.977,-88.234 22.507,31.191 39.597,66.515 49.91,104.66 C 764.855,521.824 439.027,530.926 334.262,529.645"
         style="fill:#66c54a;fill-opacity:1;fill-rule:nonzero;stroke:none"
         id="path14" />
      <path
         d="m 767.648,504.781 c 48.379,36.856 129.317,56.348 176.594,65.11 -76.719,211.445 -298.429,529.859 -298.429,529.859 0,0 -226.055,-324.676 -300.606,-536.031 81.633,0.703 256.641,-5.168 422.441,-58.938"
         style="fill:#7fd5f6;fill-opacity:1;fill-rule:nonzero;stroke:none"
         id="path16" />
      <path
         d="m 541.801,148.09 c 32.656,-11.059 67.617,-17.149 104.012,-17.149 88.136,0 168.007,35.219 226.445,92.289 -81.629,2.649 -224.988,-4.66 -330.457,-75.14"
         style="fill:#211d1d;fill-opacity:1;fill-rule:nonzero;stroke:none"
         id="path18" />
      <path
         d="m 771.145,254.469 c 21.562,1.89 42.05,2.801 60.82,3.082 -197.344,64.515 -383.477,67.679 -481.192,63.265 31.399,-68.847 86.094,-124.828 154.102,-157.707 66.105,50.371 157.258,81.782 266.27,91.36"
         style="fill:#7fd5f6;fill-opacity:1;fill-rule:nonzero;stroke:none"
         id="path20" />
      <path
         d="m 393.227,563.297 c -2.207,48.242 2.871,97.129 15.781,145 -25.625,-50.488 -48.098,-100.059 -63.801,-144.578 13.527,0.117 29.824,0.008 48.02,-0.422"
         style="fill:#54c6f3;fill-opacity:1;fill-rule:nonzero;stroke:none"
         id="path22" />
      <path
         d="m 682.309,1045.71 c -22.344,33.72 -36.496,54.04 -36.496,54.04 0,0 -61.641,-88.56 -131.141,-203.238 43.25,46.16 101.531,97.031 167.637,149.198"
         style="fill:#54c6f3;fill-opacity:1;fill-rule:nonzero;stroke:none"
         id="path24" />
      <path
         d="m 451.77,355.164 c -29.598,53.875 -48.485,112.988 -55.704,173.875 -24.851,0.742 -45.906,0.801 -61.804,0.606 -8.028,-28.016 -12.629,-53.301 -12.629,-74.52 0,-35.352 5.734,-69.355 16.203,-101.211 29.492,1.59 68.445,2.52 113.934,1.25"
         style="fill:#53a64a;fill-opacity:1;fill-rule:nonzero;stroke:none"
         id="path26" />
      <path
         d="m 472.641,320.77 c -48.254,2.07 -89.864,1.492 -121.868,0.046 31.399,-68.847 86.094,-124.828 154.102,-157.707 22.031,16.789 47.09,31.262 74.426,43.731 -42.461,32.43 -78.176,71.098 -106.66,113.93"
         style="fill:#54c6f3;fill-opacity:1;fill-rule:nonzero;stroke:none"
         id="path28" />
    </g>
  </g>
</svg>
