<?xml version="1.0" encoding="UTF-8"?>
<svg id="Layer_1" data-name="Layer 1" xmlns="http://www.w3.org/2000/svg" version="1.1" viewBox="0 0 1999.44 1999.44">
  <defs>
    <style>
      .cls-1 {
        fill: none;
      }

      .cls-1, .cls-2 {
        stroke-width: 0px;
      }

      .cls-2 {
        fill: #1c3564;
      }
    </style>
  </defs>
  <g>
    <path class="cls-2" d="M368.95,1409v31.32c0,37.72-18.9,59.28-55.35,59.28s-55.35-21.56-55.35-59.28v-122.6c0-37.72,18.9-59.28,55.35-59.28s55.35,21.56,55.35,59.28v22.9h-35.1v-25.26c0-16.84-7.42-23.24-19.24-23.24s-19.24,6.4-19.24,23.24v127.31c0,16.84,7.42,22.9,19.24,22.9s19.24-6.06,19.24-22.9v-33.68h35.1Z"/>
    <path class="cls-2" d="M388.53,1317.73c0-37.72,19.91-59.28,56.36-59.28s56.36,21.56,56.36,59.28v122.6c0,37.72-19.91,59.28-56.36,59.28s-56.36-21.56-56.36-59.28v-122.6ZM425.65,1442.68c0,16.84,7.42,23.24,19.24,23.24s19.24-6.4,19.24-23.24v-127.31c0-16.84-7.42-23.24-19.24-23.24s-19.24,6.4-19.24,23.24v127.31Z"/>
    <path class="cls-2" d="M558.95,1326.15h-.67v170.76h-33.41v-235.76h46.57l37.46,141.12h.67v-141.12h33.07v235.76h-38.13l-45.56-170.76Z"/>
    <path class="cls-2" d="M719.26,1258.45c36.11,0,54.67,21.56,54.67,59.28v7.41h-35.1v-9.77c0-16.84-6.75-23.24-18.56-23.24s-18.56,6.4-18.56,23.24,7.42,29.98,31.72,51.19c31.05,27.28,40.83,46.81,40.83,73.76,0,37.72-18.9,59.28-55.35,59.28s-55.35-21.56-55.35-59.28v-14.48h35.1v16.84c0,16.84,7.42,22.9,19.24,22.9s19.24-6.06,19.24-22.9-7.42-29.98-31.72-51.19c-31.05-27.28-40.83-46.81-40.83-73.76,0-37.72,18.56-59.28,54.67-59.28Z"/>
    <path class="cls-2" d="M784.73,1261.15h114.74v33.68h-38.81v202.08h-37.12v-202.08h-38.81v-33.68Z"/>
    <path class="cls-2" d="M993.29,1496.91c-2.02-6.06-3.37-9.77-3.37-28.96v-37.05c0-21.89-7.42-29.98-24.3-29.98h-12.82v95.99h-37.12v-235.76h56.02c38.47,0,55.01,17.85,55.01,54.22v18.53c0,24.25-7.76,39.74-24.3,47.49v.67c18.56,7.75,24.63,25.26,24.63,49.85v36.37c0,11.45.34,19.87,4.05,28.63h-37.8ZM952.79,1294.83v72.41h14.51c13.84,0,22.27-6.06,22.27-24.92v-23.24c0-16.84-5.74-24.25-18.9-24.25h-17.89Z"/>
    <path class="cls-2" d="M1086.77,1261.15v181.87c0,16.84,7.42,22.9,19.23,22.9s19.24-6.06,19.24-22.9v-181.87h35.1v179.51c0,37.72-18.9,59.28-55.34,59.28s-55.35-21.56-55.35-59.28v-179.51h37.12Z"/>
    <path class="cls-2" d="M1293.3,1409v31.32c0,37.72-18.9,59.28-55.34,59.28s-55.35-21.56-55.35-59.28v-122.6c0-37.72,18.9-59.28,55.35-59.28s55.34,21.56,55.34,59.28v22.9h-35.1v-25.26c0-16.84-7.42-23.24-19.23-23.24s-19.23,6.4-19.23,23.24v127.31c0,16.84,7.42,22.9,19.23,22.9s19.23-6.06,19.23-22.9v-33.68h35.1Z"/>
    <path class="cls-2" d="M1305.12,1261.15h114.74v33.68h-38.81v202.08h-37.12v-202.08h-38.81v-33.68Z"/>
    <path class="cls-2" d="M1436.06,1261.15h37.12v235.76h-37.12v-235.76Z"/>
    <path class="cls-2" d="M1497.14,1317.73c0-37.72,19.91-59.28,56.36-59.28s56.36,21.56,56.36,59.28v122.6c0,37.72-19.91,59.28-56.36,59.28s-56.36-21.56-56.36-59.28v-122.6ZM1534.26,1442.68c0,16.84,7.42,23.24,19.23,23.24s19.23-6.4,19.23-23.24v-127.31c0-16.84-7.42-23.24-19.23-23.24s-19.23,6.4-19.23,23.24v127.31Z"/>
    <path class="cls-2" d="M1667.57,1326.15h-.67v170.76h-33.41v-235.76h46.57l37.46,141.12h.67v-141.12h33.07v235.76h-38.13l-45.56-170.76Z"/>
  </g>
  <g>
    <path class="cls-1" d="M97.54,856.16c0-52.38,60.65-97.92,163.91-134.09v-37.75c-3.26,1.17-6.49,2.34-9.69,3.53-57.87,21.44-104.96,45.42-138.71,70.69-19.29,14.43-34.2,29.25-44.44,44.03-11.72,16.94-17.38,33.55-17.4,50.35,0,10.94,1.88,21.51,5.58,31.93,3.7,10.41,9.26,20.67,16.71,30.78,14.87,20.22,37.36,39.79,66.79,58.07,32.46,20.21,73.32,38.8,121.17,55.47v-37.19c-103.54-37.85-163.91-84.56-163.91-135.83Z"/>
    <path class="cls-1" d="M755.54,1089.23c-.93-3.03-1.74-6.06-2.51-9.09-104.07-7.16-200.12-18.94-284.79-34.52v35.98c49.7,9.07,102.73,16.79,158.52,23.05,44.95,5.04,91.71,9.13,139.9,12.26-4.57-9.06-8.25-18.34-11.12-27.68Z"/>
    <path class="cls-1" d="M1930.74,803.12c-11.75-17.15-29.62-34.28-53.15-50.77-31.76-22.3-73.77-43.36-124.23-62.5v39.69c98.81,36.09,156.59,79.67,156.59,126.62s-58,90.26-156.59,127.21v40.55c55.14-20.22,100.16-43.17,132.72-68.07,19.31-14.75,34.22-30.14,44.52-45.85,11.77-18,17.61-36.26,17.64-55.49h0c-.02-17.25-5.74-34.2-17.5-51.39Z"/>
    <path class="cls-2" d="M1950.1,789.83c-12.16-17.7-28.97-34.32-49.83-50.03-36.53-27.48-85.57-52.29-145.04-74.35-.61-.23-1.25-.45-1.87-.68v-6.12c0-21.85-4.45-42.9-12.53-61.96-12.11-28.62-32.24-52.83-57.61-69.98-12.69-8.57-26.72-15.38-41.7-20.04-14.98-4.66-30.93-7.16-47.31-7.16h-205.77c-22.72-.02-44.21,5.34-62.95,14.36-14.08,6.76-26.69,15.51-37.67,25.58-16.48,15.12-29.4,33.14-38.46,52.74-2.2,4.78-4.16,9.66-5.89,14.63-1.12-3.22-2.3-6.41-3.62-9.52-11.92-28.16-31.72-51.98-56.68-68.86-12.49-8.44-26.29-15.14-41.03-19.72-14.74-4.59-30.43-7.05-46.55-7.05h-191.74c-21.5,0-42.21,4.38-60.97,12.32-28.16,11.92-51.98,31.72-68.86,56.68-4.69,6.94-8.82,14.31-12.37,22l-.31-.67c-7.15-14.51-16.43-27.28-26.96-38.19-15.82-16.37-34.37-28.64-53.9-37.04-19.56-8.36-40.17-12.97-61.03-13.01h-358v155.69c-62.36,21.8-114.23,46.46-153.3,73.68-25.09,17.51-44.98,36.11-58.84,56.07-13.85,19.91-21.61,41.46-21.59,63.73-.02,24.28,7.56,47.49,21.39,68.74,12.1,18.62,28.89,35.88,49.74,51.96,36.5,28.12,85.48,52.75,144.84,74.21,5.82,2.1,11.74,4.17,17.76,6.2v143.93h206.8v-92.51c33.73,6.08,68.86,11.56,105.33,16.37,65.61,8.65,135.4,15.21,208.31,19.56,4.22,5.6,8.83,11.02,13.96,16.13,12.86,12.83,28.76,23.79,47.17,31.28,18.39,7.52,39.13,11.51,61.23,11.49h207.04c9.15,0,18.03-1.15,26.69-3.1,15.15-3.45,29.69-9.37,43.52-17.33,10.36-5.98,20.3-13.14,29.55-21.48,13.86-12.51,26.26-27.72,35.46-45.79.76-1.49,1.46-3.03,2.17-4.56,11.99,26.74,31.15,49.38,55.13,65.59,12.44,8.4,26.19,15.08,40.88,19.65,14.68,4.57,30.31,7.02,46.37,7.02h206.75c21.35,0,41.93-4.35,60.56-12.24,27.97-11.84,51.63-31.5,68.4-56.31,8.38-12.4,15.04-26.11,19.59-40.76,4.16-13.37,6.54-27.52,6.92-42.07,45.68-16.26,85.35-34.41,117.94-54.48,31.29-19.3,56.18-40.4,73.53-63.7,8.66-11.65,15.42-23.87,20-36.62,4.59-12.75,6.98-26.02,6.97-39.6.02-22.63-7.74-44.49-21.62-64.68ZM140.28,973.71c-29.43-18.29-51.92-37.86-66.79-58.07-7.44-10.11-13-20.37-16.71-30.78-3.7-10.42-5.57-21-5.58-31.93.02-16.8,5.68-33.41,17.4-50.35,10.24-14.78,25.15-29.6,44.44-44.03,33.75-25.27,80.84-49.24,138.71-70.69,3.19-1.18,6.43-2.36,9.69-3.53v37.75c-103.26,36.17-163.91,81.71-163.91,134.09s60.37,97.98,163.91,135.83v37.19c-47.85-16.67-88.71-35.25-121.17-55.47ZM424.14,1153.85h-118.58v-605.99h313.89c50.14,0,112.91,40.98,112.91,109.86v170.95c0,61.85-50.14,111.99-111.99,111.99h-196.23v213.19ZM468.25,1081.6v-35.98c84.66,15.58,180.72,27.36,284.79,34.52.77,3.03,1.58,6.07,2.51,9.09,2.87,9.34,6.56,18.62,11.12,27.68-48.19-3.12-94.95-7.21-139.9-12.26-55.79-6.26-108.82-13.98-158.52-23.05ZM1111.29,1156.18h-207.04c-80.26,0-112.89-67.19-112.89-122.22v-73.88h118.97v57.71c0,13.3,10.78,24.07,24.07,24.07h138.83c13.3,0,24.07-10.78,24.07-24.07v-67.13c0-18.85-9.12-24.93-35.57-30.4-26.45-5.47-162.96-30.4-201.27-50.77-58.34-31.02-69.11-79.35-69.11-107.32v-103.91c0-62.12,50.36-112.48,112.48-112.48h191.74c62.12,0,112.48,50.36,112.48,112.48v76.15h-117.06v-52.42c0-12.3-9.97-22.28-22.28-22.28h-133.99c-12.3,0-22.28,9.97-22.28,22.28v61.33c0,20.98,12.77,27.67,34.36,31.92,21.59,4.26,118.88,19.76,187.28,43.17,68.41,23.41,83.3,78.14,83.3,102.46v130.12c0,61.11-62.93,105.19-106.11,105.19ZM1597.81,1156.18h-206.75c-61.79,0-111.88-50.09-111.88-111.88v-389.24c0-52.56,45.73-111.44,109.26-111.44h205.77c63.54,0,115.05,51.51,115.05,115.05v101.23h-120.42l-.37-76.8c-.06-13.17-10.76-23.82-23.93-23.82h-141.1c-13.22,0-23.94,10.72-23.94,23.94v333.89c0,14.11,11.44,25.55,25.55,25.55h137.99c14.11,0,25.55-11.44,25.55-25.55v-78.1h120.67v105.76c0,61.55-49.89,111.44-111.44,111.44ZM1930.6,910c-10.3,15.72-25.21,31.11-44.52,45.85-32.56,24.9-77.58,47.85-132.72,68.07v-40.55c98.59-36.95,156.59-80.91,156.59-127.21s-57.78-90.53-156.59-126.62v-39.69c50.46,19.13,92.47,40.19,124.23,62.5,23.53,16.49,41.4,33.63,53.15,50.77,11.76,17.19,17.48,34.14,17.5,51.39h0c-.02,19.24-5.87,37.49-17.64,55.49Z"/>
    <path class="cls-2" d="M588.14,824.3c13.31,0,24.1-10.79,24.1-24.1v-113.23c0-13.31-10.79-24.1-24.1-24.1h-162.85v161.43h162.85Z"/>
  </g>
</svg>